<svg xmlns="http://www.w3.org/2000/svg" viewBox="0 0 240 168" role="img" aria-label="הַדָּג לְיַד הַגֶּשֶׁר">
  <rect x="0" y="0" width="240" height="168" rx="18" fill="#EAF7FB"/>
  <circle cx="30" cy="30" r="5" fill="#FFFFFF" opacity="0.6"/>
  <circle cx="150" cy="30" r="4" fill="#FFFFFF" opacity="0.55"/>
  <circle cx="134" cy="16" r="3" fill="#FFFFFF" opacity="0.5"/>
  <path d="M0 150 Q60 138 120 148 Q180 158 240 146 L240 168 L0 168 Z" fill="#F3E3C7" stroke="#E4CFA6" stroke-width="2"/>
  <!-- bridge pushed left so the fish sits clearly to its side -->
  <g stroke="#C89257" stroke-width="3" stroke-linejoin="round">
    <rect x="30" y="66" width="24" height="80" rx="9" fill="#E9C7A0"/>
    <rect x="120" y="66" width="24" height="80" rx="9" fill="#E9C7A0"/>
    <rect x="22" y="44" width="130" height="26" rx="12" fill="#EFD2AE"/>
  </g>
  <path d="M56 68 Q88 94 118 68" fill="none" stroke="#C89257" stroke-width="2.4" stroke-linecap="round" opacity="0.8"/>
  <!-- fish BESIDE the bridge (to the right, outside) -->
  <g transform="translate(196,100)">
    <path d="M14 0 L31 -12 L31 12 Z" fill="#FFCE9E" stroke="#E07B3E" stroke-width="2.4" stroke-linejoin="round"/>
    <ellipse cx="0" cy="0" rx="20" ry="13" fill="#FFAE6B" stroke="#E07B3E" stroke-width="2.6"/>
    <path d="M-3 12 Q2 20 10 14" fill="none" stroke="#E07B3E" stroke-width="2.2" stroke-linecap="round"/>
    <circle cx="-11" cy="-3" r="2.8" fill="#26505C"/>
  </g>
</svg>
