<svg xmlns="http://www.w3.org/2000/svg" viewBox="0 0 240 168" role="img" aria-label="הַדָּג לְיַד הַמְּעָרָה">
  <rect x="0" y="0" width="240" height="168" rx="18" fill="#EAF7FB"/>
  <circle cx="30" cy="28" r="5" fill="#FFFFFF" opacity="0.6"/>
  <circle cx="150" cy="26" r="4" fill="#FFFFFF" opacity="0.55"/>
  <path d="M0 152 Q60 142 120 150 Q180 158 240 148 L240 168 L0 168 Z" fill="#F3E3C7" stroke="#E4CFA6" stroke-width="2"/>
  <!-- cave shifted left; fish clearly to its side -->
  <path d="M34 150 Q40 82 98 78 Q156 82 162 150 Z" fill="#E9C7A0" stroke="#C89257" stroke-width="3" stroke-linejoin="round"/>
  <ellipse cx="98" cy="124" rx="29" ry="25" fill="#17323B"/>
  <ellipse cx="98" cy="124" rx="29" ry="25" fill="none" stroke="#C89257" stroke-width="3"/>
  <!-- fish BESIDE the cave (to the right, outside) -->
  <g transform="translate(202,110)">
    <path d="M14 0 L31 -12 L31 12 Z" fill="#FFCE9E" stroke="#E07B3E" stroke-width="2.4" stroke-linejoin="round"/>
    <ellipse cx="0" cy="0" rx="20" ry="13" fill="#FFAE6B" stroke="#E07B3E" stroke-width="2.6"/>
    <path d="M-3 12 Q2 20 10 14" fill="none" stroke="#E07B3E" stroke-width="2.2" stroke-linecap="round"/>
    <circle cx="-11" cy="-3" r="2.8" fill="#26505C"/>
  </g>
</svg>
